# xmcd CD database file
#
# Track frame offsets:
#	150
#	12255
#	24510
#	36995
#	49150
#	63722
#	74787
#	86870
#	96532
#	108870
#	118427
#	132065
#	139725
#	151317
#	164387
#	176590
#	187255
#	197282
#	211162
#	221937
#
# Disc length: 3151 seconds
#
# Revision: 1
# Processed by: cddbd v1.4PL0 Copyright (c) Steve Scherf et al.
# Submitted via: CDex 1.51
#
DISCID=360c4d14
DTITLE=Various Artist - Country Complete Volume 2
DYEAR=1997
DGENRE=Country
TTITLE0=Tammy Wynette - Stand By Your Man
TTITLE1=Freddy Fender - Wasted Days And Wasted Nights
TTITLE2=Patsy Cline - Crazy
TTITLE3=Charlie Rich - Most Beautiful Girl In The World
TTITLE4=Jeannie C Riley - Harper Valley P.T.A
TTITLE5=Glen Campbell - Try A Little Kindness
TTITLE6=Del Reeves - Girl On A Billboard
TTITLE7=Ned Miller - From A Jack To A King
TTITLE8=Billie Jo Spears - What I've Got In Mind
TTITLE9=George Jones - The Race Is On
TTITLE10=Loretta Lynn - Coal Miners Daughter
TTITLE11=Johnny Cash - Come In Stranger
TTITLE12=Jody Miller - He Walks Like A Man
TTITLE13=Johnny Tillotson - Send Me The Pillow That You Dream On
TTITLE14=Jeanne Black - He'll Have To Stay
TTITLE15=Don Gibson - Lonesome Number One
TTITLE16=George Hamilton IV - Abilene
TTITLE17=Crystal Gayle - River Road
TTITLE18=Ferlin Husky - Gone
TTITLE19=Glen Campbell and Bobbie Gentry - My Elusive Dreams
EXTD=EMI (Aust) YEAR: 1997
EXTT0=
EXTT1=
EXTT2=
EXTT3=
EXTT4=
EXTT5=
EXTT6=
EXTT7=
EXTT8=
EXTT9=
EXTT10=
EXTT11=
EXTT12=
EXTT13=
EXTT14=
EXTT15=
EXTT16=
EXTT17=
EXTT18=
EXTT19=
PLAYORDER=
